<?xml version="1.0" encoding="UTF-8"?>
<!DOCTYPE svg PUBLIC "-//W3C//DTD SVG 1.1//EN" "http://www.w3.org/Graphics/SVG/1.1/DTD/svg11.dtd">
<svg xmlns="http://www.w3.org/2000/svg" version="1.1" width="500px" height="329px" style="shape-rendering:geometricPrecision; text-rendering:geometricPrecision; image-rendering:optimizeQuality; fill-rule:evenodd; clip-rule:evenodd" xmlns:xlink="http://www.w3.org/1999/xlink">
<g><path style="opacity:0.961" fill="#cc9f8e" d="M 62.5,176.5 C 61.4908,175.061 61.8241,173.728 63.5,172.5C 66.3622,174.637 66.0289,175.97 62.5,176.5 Z"/></g>
<g><path style="opacity:1" fill="#de966c" d="M 241.5,176.5 C 239.485,177.924 237.152,178.59 234.5,178.5C 236.515,177.076 238.848,176.41 241.5,176.5 Z"/></g>
<g><path style="opacity:1" fill="#c8540c" d="M 198.5,177.5 C 203.312,176.965 207.645,177.965 211.5,180.5C 211.833,181.5 212.5,182.167 213.5,182.5C 213.833,182.5 214.167,182.5 214.5,182.5C 214.5,183.167 214.5,183.833 214.5,184.5C 212.862,183.086 211.528,183.42 210.5,185.5C 209.571,184.311 209.238,182.978 209.5,181.5C 207.143,181.337 204.81,181.503 202.5,182C 201.701,184.228 202.701,185.561 205.5,186C 205.167,186.333 204.833,186.667 204.5,187C 200.416,187.231 196.416,187.898 192.5,189C 192.957,189.414 193.291,189.914 193.5,190.5C 192.726,191.711 191.893,191.711 191,190.5C 187.624,192.759 187.79,194.759 191.5,196.5C 191.227,200.595 190.227,204.262 188.5,207.5C 188.5,204.5 188.5,201.5 188.5,198.5C 187.081,197.549 185.415,197.216 183.5,197.5C 184.6,196.442 185.934,195.608 187.5,195C 186.44,193.702 185.274,192.535 184,191.5C 182.306,193.429 180.139,194.429 177.5,194.5C 177.5,193.5 177.5,192.5 177.5,191.5C 171.696,192.576 166.529,192.576 162,191.5C 161.722,192.416 161.222,193.082 160.5,193.5C 160.631,192.624 160.298,191.957 159.5,191.5C 158.218,192.958 158.218,194.292 159.5,195.5C 159.956,199.524 158.956,203.024 156.5,206C 157.087,209.386 157.754,212.72 158.5,216C 156.011,221.368 155.845,226.868 158,232.5C 160.714,231.794 162.881,230.461 164.5,228.5C 164.719,227.325 164.386,226.325 163.5,225.5C 162.893,225.624 162.56,225.957 162.5,226.5C 161.662,226.842 161.328,227.508 161.5,228.5C 158.183,223.659 159.516,221.826 165.5,223C 166.239,226.073 168.072,228.24 171,229.5C 171.557,231.615 172.391,233.615 173.5,235.5C 175.958,236.124 177.624,237.624 178.5,240C 179.448,240.483 180.448,240.649 181.5,240.5C 182.812,235.274 180.979,231.941 176,230.5C 174.634,228.63 173.467,226.63 172.5,224.5C 172.833,223.5 173.5,222.833 174.5,222.5C 176.121,224.153 177.288,226.153 178,228.5C 179,227.167 180,225.833 181,224.5C 184,225.167 187,225.833 190,226.5C 190.499,231.823 190.666,237.156 190.5,242.5C 190.167,242.5 189.833,242.5 189.5,242.5C 190.108,237.056 189.442,232.056 187.5,227.5C 186.5,227.5 185.5,227.5 184.5,227.5C 183.513,232.305 183.179,237.305 183.5,242.5C 181.167,242.5 178.833,242.5 176.5,242.5C 176.167,238.5 175.833,238.5 175.5,242.5C 168.833,242.5 162.167,242.5 155.5,242.5C 155.822,236.642 155.489,230.975 154.5,225.5C 154.5,217.167 154.5,208.833 154.5,200.5C 155.283,198.657 155.95,196.657 156.5,194.5C 155.546,188.896 155.212,183.229 155.5,177.5C 169.833,177.5 184.167,177.5 198.5,177.5 Z M 188.5,198.5 C 188.5,201.5 188.5,204.5 188.5,207.5C 187.5,207.5 186.5,207.5 185.5,207.5C 184.597,204.609 184.264,201.609 184.5,198.5C 185.833,198.5 187.167,198.5 188.5,198.5 Z"/></g>
<g><path style="opacity:1" fill="#ca5610" d="M 280.5,177.5 C 282.41,184.556 283.076,191.889 282.5,199.5C 272.111,198.859 262.111,199.526 252.5,201.5C 252.334,207.509 252.501,213.509 253,219.5C 254.011,220.337 255.178,220.67 256.5,220.5C 256.833,220.5 257.167,220.5 257.5,220.5C 257.719,221.675 257.386,222.675 256.5,223.5C 255.532,222.511 254.365,221.844 253,221.5C 248.204,222.815 244.037,225.149 240.5,228.5C 238.787,228.121 237.787,227.121 237.5,225.5C 239.179,225.715 240.179,225.048 240.5,223.5C 240.833,220.5 239.5,219.167 236.5,219.5C 236.196,218.85 235.863,218.183 235.5,217.5C 236.167,217.167 236.833,216.833 237.5,216.5C 235.326,215.107 233.493,215.44 232,217.5C 231.667,217.167 231.333,216.833 231,216.5C 229.601,217.227 228.101,217.727 226.5,218C 224.737,221.243 224.071,224.743 224.5,228.5C 222.053,216.347 221.887,204.014 224,191.5C 224.566,189.277 225.4,187.277 226.5,185.5C 227.906,185.027 228.573,184.027 228.5,182.5C 230.404,182.262 231.738,181.262 232.5,179.5C 232.842,178.662 233.508,178.328 234.5,178.5C 237.152,178.59 239.485,177.924 241.5,176.5C 254.52,174.989 267.52,175.323 280.5,177.5 Z M 240.5,223.5 C 240.179,225.048 239.179,225.715 237.5,225.5C 236.235,222.437 237.235,221.77 240.5,223.5 Z"/></g>
<g><path style="opacity:1" fill="#c85105" d="M 407.5,177.5 C 407.5,184.167 407.5,190.833 407.5,197.5C 400.167,197.5 392.833,197.5 385.5,197.5C 385.5,199.167 385.5,200.833 385.5,202.5C 392.833,202.5 400.167,202.5 407.5,202.5C 407.5,207.833 407.5,213.167 407.5,218.5C 400.5,218.5 393.5,218.5 386.5,218.5C 385.549,219.919 385.216,221.585 385.5,223.5C 392.745,223.975 400.079,223.975 407.5,223.5C 407.5,229.833 407.5,236.167 407.5,242.5C 394.917,243.116 382.584,242.449 370.5,240.5C 369.883,240.389 369.383,240.056 369,239.5C 367.961,240.71 366.794,241.71 365.5,242.5C 362.5,242.5 359.5,242.5 356.5,242.5C 356.333,224.83 356.5,207.164 357,189.5C 357.889,190.888 358.389,190.722 358.5,189C 358.389,187.278 357.889,187.112 357,188.5C 356.501,184.848 356.335,181.182 356.5,177.5C 373.5,177.5 390.5,177.5 407.5,177.5 Z"/></g>
<g><path style="opacity:1" fill="#c95308" d="M 456.5,177.5 C 473.372,177.553 480.039,185.886 476.5,202.5C 475.175,203.953 474.342,203.619 474,201.5C 472.949,204.426 471.782,207.426 470.5,210.5C 469.292,211.234 467.959,211.567 466.5,211.5C 464.436,211.687 462.436,212.187 460.5,213C 461.793,213.49 463.127,213.657 464.5,213.5C 468.259,213.862 471.593,215.195 474.5,217.5C 474.427,219.027 475.094,220.027 476.5,220.5C 477.404,221.209 477.737,222.209 477.5,223.5C 477.5,229.833 477.5,236.167 477.5,242.5C 467.833,242.5 458.167,242.5 448.5,242.5C 448.819,237.637 448.486,232.97 447.5,228.5C 445.99,227.272 444.49,227.272 443,228.5C 442.501,233.155 442.334,237.821 442.5,242.5C 439.833,242.5 437.167,242.5 434.5,242.5C 434.167,238.5 433.833,238.5 433.5,242.5C 426.833,242.5 420.167,242.5 413.5,242.5C 413.759,220.749 413.759,199.082 413.5,177.5C 427.833,177.5 442.167,177.5 456.5,177.5 Z M 442.5,198.5 C 444.167,198.5 445.833,198.5 447.5,198.5C 447.664,201.187 447.497,203.854 447,206.5C 445.667,207.833 444.333,207.833 443,206.5C 442.503,203.854 442.336,201.187 442.5,198.5 Z"/></g>
<g><path style="opacity:0.004" fill="#efdbcd" d="M 211.5,180.5 C 212.833,180.5 213.5,181.167 213.5,182.5C 212.5,182.167 211.833,181.5 211.5,180.5 Z"/></g>
<g><path style="opacity:0.737" fill="#e1a787" d="M 232.5,179.5 C 231.738,181.262 230.404,182.262 228.5,182.5C 229.262,180.738 230.596,179.738 232.5,179.5 Z"/></g>
<g><path style="opacity:0.945" fill="#d7a68a" d="M 198.5,177.5 C 184.167,177.5 169.833,177.5 155.5,177.5C 155.212,183.229 155.546,188.896 156.5,194.5C 155.95,196.657 155.283,198.657 154.5,200.5C 154.5,192.5 154.5,184.5 154.5,176.5C 169.343,176.171 184.01,176.504 198.5,177.5 Z"/></g>
<g><path style="opacity:0.484" fill="#e0c6b6" d="M 86.5,177.5 C 96.3194,176.506 106.319,176.173 116.5,176.5C 116.5,191.167 116.5,205.833 116.5,220.5C 115.504,206.343 115.171,192.01 115.5,177.5C 106.167,177.5 96.8333,177.5 87.5,177.5C 87.1667,177.5 86.8333,177.5 86.5,177.5 Z"/></g>
<g><path style="opacity:0.592" fill="#e0b190" d="M 77.5,181.5 C 78.9063,181.973 79.573,182.973 79.5,184.5C 78.0937,184.027 77.427,183.027 77.5,181.5 Z"/></g>
<g><path style="opacity:0.31" fill="#e8cbb9" d="M 214.5,182.5 C 215.906,182.973 216.573,183.973 216.5,185.5C 215.833,185.167 215.167,184.833 214.5,184.5C 214.5,183.833 214.5,183.167 214.5,182.5 Z"/></g>
<g><path style="opacity:0.439" fill="#e5baa2" d="M 228.5,182.5 C 228.573,184.027 227.906,185.027 226.5,185.5C 226.427,183.973 227.094,182.973 228.5,182.5 Z"/></g>
<g><path style="opacity:0.572" fill="#d5a282" d="M 86.5,177.5 C 86.8333,177.5 87.1667,177.5 87.5,177.5C 87.3119,196.181 87.6452,214.847 88.5,233.5C 87.6862,231.369 87.1862,229.036 87,226.5C 86.5001,210.17 86.3334,193.837 86.5,177.5 Z"/></g>
<g><path style="opacity:1" fill="#c95206" d="M 50.5,199.5 C 50.5,200.833 50.5,202.167 50.5,203.5C 52.2646,204.461 54.2646,204.795 56.5,204.5C 56.7947,202.265 56.4614,200.265 55.5,198.5C 55.1667,198.5 54.8333,198.5 54.5,198.5C 54.5774,197.25 55.244,196.417 56.5,196C 55.436,194.489 54.1026,194.323 52.5,195.5C 51.9935,194.141 50.9935,193.141 49.5,192.5C 50.1667,192.167 50.8333,191.833 51.5,191.5C 56.7277,195.705 61.3943,195.205 65.5,190C 72.0431,187.824 74.8764,189.991 74,196.5C 68.6853,204.613 64.0186,204.28 60,195.5C 58.7161,200.27 60.2161,203.937 64.5,206.5C 64.1667,207.167 63.8333,207.833 63.5,208.5C 64.6872,209.519 65.6872,210.686 66.5,212C 64.9907,215.669 66.3241,217.169 70.5,216.5C 70.5,215.5 70.5,214.5 70.5,213.5C 72.9892,213.298 75.3225,213.798 77.5,215C 75.3767,217.799 72.7101,219.799 69.5,221C 73.4492,221.927 76.9492,221.094 80,218.5C 80.2958,221.433 79.7958,224.266 78.5,227C 79.8945,229.679 80.5612,232.512 80.5,235.5C 79.2482,236.968 77.2482,237.968 74.5,238.5C 74.5,239.5 74.5,240.5 74.5,241.5C 72.1432,241.663 69.8098,241.497 67.5,241C 68.3079,239.294 69.6412,238.461 71.5,238.5C 70.7021,233.857 68.0354,231.69 63.5,232C 62.5495,235.057 62.2161,238.223 62.5,241.5C 51.645,242.111 40.9783,241.445 30.5,239.5C 29.6677,229.183 29.1677,218.849 29,208.5C 27.5362,207.541 26.7028,206.208 26.5,204.5C 27.5299,200.535 27.6965,196.535 27,192.5C 25.6309,208.798 25.1309,225.131 25.5,241.5C 24.5,241.5 23.5,241.5 22.5,241.5C 22.3334,221.497 22.5,201.497 23,181.5C 24.1545,182.743 25.4878,183.743 27,184.5C 28.4936,183.253 29.9936,183.253 31.5,184.5C 30.1038,185.852 29.4371,187.519 29.5,189.5C 30.0466,192.826 30.5466,196.16 31,199.5C 31.4974,196.854 31.6641,194.187 31.5,191.5C 36.5,191.5 41.5,191.5 46.5,191.5C 46.5,192.833 46.5,194.167 46.5,195.5C 47.5,195.5 48.5,195.5 49.5,195.5C 49.4326,196.959 49.7659,198.292 50.5,199.5 Z M 52.5,195.5 C 52.9321,196.71 53.5987,197.71 54.5,198.5C 54.8333,198.5 55.1667,198.5 55.5,198.5C 55.5,200.167 55.5,201.833 55.5,203.5C 53.8333,203.5 52.1667,203.5 50.5,203.5C 50.5,202.167 50.5,200.833 50.5,199.5C 51.6527,198.687 51.6527,197.687 50.5,196.5C 50.9569,195.702 51.6236,195.369 52.5,195.5 Z M 50.5,216.5 C 51.8333,216.5 53.1667,216.5 54.5,216.5C 54.5,218.5 54.5,220.5 54.5,222.5C 53.1667,222.5 51.8333,222.5 50.5,222.5C 50.5,220.5 50.5,218.5 50.5,216.5 Z M 64.5,236.5 C 67.0009,236.511 67.1676,237.178 65,238.5C 64.5357,237.906 64.369,237.239 64.5,236.5 Z"/></g>
<g><path style="opacity:1" fill="#c85207" d="M 87.5,177.5 C 96.8333,177.5 106.167,177.5 115.5,177.5C 115.171,192.01 115.504,206.343 116.5,220.5C 117.833,220.5 119.167,220.5 120.5,220.5C 121.496,206.343 121.829,192.01 121.5,177.5C 130.833,177.5 140.167,177.5 149.5,177.5C 149.5,194.167 149.5,210.833 149.5,227.5C 149.435,230.428 148.768,233.095 147.5,235.5C 145.077,236.654 142.744,237.821 140.5,239C 141.167,239.333 141.833,239.667 142.5,240C 140.881,240.236 139.881,241.069 139.5,242.5C 127.422,245.799 115.089,246.299 102.5,244C 95.3826,243.622 90.7159,240.122 88.5,233.5C 87.6452,214.847 87.3119,196.181 87.5,177.5 Z"/></g>
<g><path style="opacity:1" fill="#ca5c1a" d="M 62.5,176.5 C 67.97,176.669 72.97,178.336 77.5,181.5C 77.427,183.027 78.0937,184.027 79.5,184.5C 80.3382,184.842 80.6716,185.508 80.5,186.5C 80.9732,191.711 79.6398,196.378 76.5,200.5C 76.7093,201.086 77.0426,201.586 77.5,202C 75.8934,203.049 75.2267,204.549 75.5,206.5C 72.562,206.273 70.2287,207.273 68.5,209.5C 68.5,210.167 68.8333,210.5 69.5,210.5C 69.6107,211.117 69.944,211.617 70.5,212C 72.4727,212.495 74.4727,212.662 76.5,212.5C 77.4916,212.328 78.1583,212.662 78.5,213.5C 78.7376,215.404 79.7376,216.738 81.5,217.5C 84.1241,223.397 84.1241,229.397 81.5,235.5C 81.1667,235.5 80.8333,235.5 80.5,235.5C 80.5612,232.512 79.8945,229.679 78.5,227C 79.7958,224.266 80.2958,221.433 80,218.5C 76.9492,221.094 73.4492,221.927 69.5,221C 72.7101,219.799 75.3767,217.799 77.5,215C 75.3225,213.798 72.9892,213.298 70.5,213.5C 70.5,214.5 70.5,215.5 70.5,216.5C 66.3241,217.169 64.9907,215.669 66.5,212C 65.6872,210.686 64.6872,209.519 63.5,208.5C 63.8333,207.833 64.1667,207.167 64.5,206.5C 60.2161,203.937 58.7161,200.27 60,195.5C 64.0186,204.28 68.6853,204.613 74,196.5C 74.8764,189.991 72.0431,187.824 65.5,190C 61.3943,195.205 56.7277,195.705 51.5,191.5C 50.8333,191.833 50.1667,192.167 49.5,192.5C 50.9935,193.141 51.9935,194.141 52.5,195.5C 51.6236,195.369 50.9569,195.702 50.5,196.5C 51.6527,197.687 51.6527,198.687 50.5,199.5C 49.7659,198.292 49.4326,196.959 49.5,195.5C 48.5,195.5 47.5,195.5 46.5,195.5C 46.5,194.167 46.5,192.833 46.5,191.5C 41.5,191.5 36.5,191.5 31.5,191.5C 31.6641,194.187 31.4974,196.854 31,199.5C 30.5466,196.16 30.0466,192.826 29.5,189.5C 29.4371,187.519 30.1038,185.852 31.5,184.5C 29.9936,183.253 28.4936,183.253 27,184.5C 25.4878,183.743 24.1545,182.743 23,181.5C 22.5,201.497 22.3334,221.497 22.5,241.5C 23.5,241.5 24.5,241.5 25.5,241.5C 25.1309,225.131 25.6309,208.798 27,192.5C 27.6965,196.535 27.5299,200.535 26.5,204.5C 26.7028,206.208 27.5362,207.541 29,208.5C 29.1677,218.849 29.6677,229.183 30.5,239.5C 40.9783,241.445 51.645,242.111 62.5,241.5C 62.2161,238.223 62.5495,235.057 63.5,232C 68.0354,231.69 70.7021,233.857 71.5,238.5C 69.6412,238.461 68.3079,239.294 67.5,241C 69.8098,241.497 72.1432,241.663 74.5,241.5C 73.7375,242.268 72.7375,242.768 71.5,243C 54.8367,243.5 38.17,243.667 21.5,243.5C 21.5,227.833 21.5,212.167 21.5,196.5C 21.5,195.833 21.5,195.167 21.5,194.5C 21.1918,188.575 21.5251,182.741 22.5,177C 35.8292,176.5 49.1625,176.333 62.5,176.5 Z M 52.5,195.5 C 52.9321,196.71 53.5987,197.71 54.5,198.5C 54.8333,198.5 55.1667,198.5 55.5,198.5C 55.5,200.167 55.5,201.833 55.5,203.5C 53.8333,203.5 52.1667,203.5 50.5,203.5C 50.5,202.167 50.5,200.833 50.5,199.5C 51.6527,198.687 51.6527,197.687 50.5,196.5C 50.9569,195.702 51.6236,195.369 52.5,195.5 Z M 50.5,216.5 C 50.5,218.5 50.5,220.5 50.5,222.5C 51.8333,222.5 53.1667,222.5 54.5,222.5C 54.5,220.5 54.5,218.5 54.5,216.5C 53.1667,216.5 51.8333,216.5 50.5,216.5 Z M 64.5,236.5 C 64.369,237.239 64.5357,237.906 65,238.5C 67.1676,237.178 67.0009,236.511 64.5,236.5 Z"/></g>
<g><path style="opacity:0.932" fill="#dd9367" d="M 322.5,177.5 C 331.986,176.506 341.652,176.173 351.5,176.5C 351.667,194.503 351.5,212.503 351,230.5C 350.626,232.491 349.793,234.158 348.5,235.5C 348.337,233.143 348.503,230.81 349,228.5C 349.333,228.833 349.667,229.167 350,229.5C 350.5,212.17 350.667,194.837 350.5,177.5C 341.167,177.5 331.833,177.5 322.5,177.5 Z"/></g>
<g><path style="opacity:1" fill="#c95105" d="M 214.5,184.5 C 215.167,184.833 215.833,185.167 216.5,185.5C 217.422,190.472 217.588,195.472 217,200.5C 216.667,200.833 216.333,201.167 216,201.5C 215.781,200.062 215.281,198.729 214.5,197.5C 213.979,200.778 213.813,204.111 214,207.5C 213.781,206.062 213.281,204.729 212.5,203.5C 212.369,205.826 212.036,208.159 211.5,210.5C 208.612,209.99 206.279,210.656 204.5,212.5C 209.744,213.206 214.244,215.539 218,219.5C 218.977,221.74 219.477,224.073 219.5,226.5C 219.5,231.833 219.5,237.167 219.5,242.5C 209.833,242.5 200.167,242.5 190.5,242.5C 190.666,237.156 190.499,231.823 190,226.5C 187,225.833 184,225.167 181,224.5C 180,225.833 179,227.167 178,228.5C 177.288,226.153 176.121,224.153 174.5,222.5C 173.5,222.833 172.833,223.5 172.5,224.5C 173.467,226.63 174.634,228.63 176,230.5C 180.979,231.941 182.812,235.274 181.5,240.5C 180.448,240.649 179.448,240.483 178.5,240C 177.624,237.624 175.958,236.124 173.5,235.5C 172.391,233.615 171.557,231.615 171,229.5C 168.072,228.24 166.239,226.073 165.5,223C 159.516,221.826 158.183,223.659 161.5,228.5C 162.348,229.625 163.348,229.625 164.5,228.5C 162.881,230.461 160.714,231.794 158,232.5C 155.845,226.868 156.011,221.368 158.5,216C 157.754,212.72 157.087,209.386 156.5,206C 158.956,203.024 159.956,199.524 159.5,195.5C 159.833,194.833 160.167,194.167 160.5,193.5C 161.222,193.082 161.722,192.416 162,191.5C 166.529,192.576 171.696,192.576 177.5,191.5C 177.5,192.5 177.5,193.5 177.5,194.5C 180.139,194.429 182.306,193.429 184,191.5C 185.274,192.535 186.44,193.702 187.5,195C 185.934,195.608 184.6,196.442 183.5,197.5C 182.931,201.329 183.598,204.663 185.5,207.5C 186.5,207.5 187.5,207.5 188.5,207.5C 190.227,204.262 191.227,200.595 191.5,196.5C 187.79,194.759 187.624,192.759 191,190.5C 191.893,191.711 192.726,191.711 193.5,190.5C 193.291,189.914 192.957,189.414 192.5,189C 196.416,187.898 200.416,187.231 204.5,187C 204.833,186.667 205.167,186.333 205.5,186C 202.701,185.561 201.701,184.228 202.5,182C 204.81,181.503 207.143,181.337 209.5,181.5C 209.238,182.978 209.571,184.311 210.5,185.5C 211.528,183.42 212.862,183.086 214.5,184.5 Z M 188.5,198.5 C 188.5,201.5 188.5,204.5 188.5,207.5C 187.5,207.5 186.5,207.5 185.5,207.5C 184.597,204.609 184.264,201.609 184.5,198.5C 185.833,198.5 187.167,198.5 188.5,198.5 Z"/></g>
<g><path style="opacity:1" fill="#cb5610" d="M 288.5,177.5 C 297.833,177.5 307.167,177.5 316.5,177.5C 316.667,189.838 316.5,202.171 316,214.5C 314.562,215.9 313.729,217.567 313.5,219.5C 315.675,219.682 317.675,220.349 319.5,221.5C 320.416,221.457 321.083,221.124 321.5,220.5C 321.171,205.99 321.504,191.657 322.5,177.5C 331.833,177.5 341.167,177.5 350.5,177.5C 350.667,194.837 350.5,212.17 350,229.5C 349.667,229.167 349.333,228.833 349,228.5C 348.503,230.81 348.337,233.143 348.5,235.5C 347.412,239.09 345.079,241.59 341.5,243C 331.262,245.18 320.929,245.847 310.5,245C 305.462,244.766 300.795,243.599 296.5,241.5C 296.027,240.094 295.027,239.427 293.5,239.5C 292.829,238.153 292.829,236.986 293.5,236C 292.473,235.487 291.473,234.987 290.5,234.5C 289.113,232.123 288.279,229.457 288,226.5C 287.172,209.995 287.338,193.661 288.5,177.5 Z"/></g>
<g><path style="opacity:0.413" fill="#e8cbb7" d="M 408.5,177.5 C 408.167,177.5 407.833,177.5 407.5,177.5C 390.5,177.5 373.5,177.5 356.5,177.5C 356.335,181.182 356.501,184.848 357,188.5C 357.889,187.112 358.389,187.278 358.5,189C 358.389,190.722 357.889,190.888 357,189.5C 356.5,207.164 356.333,224.83 356.5,242.5C 359.5,242.5 362.5,242.5 365.5,242.5C 362.375,243.479 359.042,243.813 355.5,243.5C 355.5,221.167 355.5,198.833 355.5,176.5C 373.341,176.17 391.008,176.503 408.5,177.5 Z"/></g>
<g><path style="opacity:0.004" fill="#f3d3c0" d="M 160.5,193.5 C 160.167,194.167 159.833,194.833 159.5,195.5C 158.218,194.292 158.218,192.958 159.5,191.5C 160.298,191.957 160.631,192.624 160.5,193.5 Z"/></g>
<g><path style="opacity:0.512" fill="#e2b69b" d="M 149.5,227.5 C 149.5,210.833 149.5,194.167 149.5,177.5C 140.167,177.5 130.833,177.5 121.5,177.5C 121.829,192.01 121.496,206.343 120.5,220.5C 120.5,205.833 120.5,191.167 120.5,176.5C 130.5,176.5 140.5,176.5 150.5,176.5C 150.83,193.675 150.497,210.675 149.5,227.5 Z"/></g>
<g><path style="opacity:0.106" fill="#f6e6dc" d="M 132.5,193.5 C 134.337,193.639 134.67,194.306 133.5,195.5C 132.702,195.043 132.369,194.376 132.5,193.5 Z"/></g>
<g><path style="opacity:0.584" fill="#d3beb0" d="M 21.5,194.5 C 21.5,195.167 21.5,195.833 21.5,196.5C 17.5,195.833 17.5,195.167 21.5,194.5 Z"/></g>
<g><path style="opacity:0.58" fill="#f1c3a7" d="M 417.5,191.5 C 418.782,192.708 418.782,194.042 417.5,195.5C 417.094,194.443 417.094,193.109 417.5,191.5 Z"/></g>
<g><path style="opacity:0.533" fill="#e9ba9d" d="M 54.5,198.5 C 53.5987,197.71 52.9321,196.71 52.5,195.5C 54.1026,194.323 55.436,194.489 56.5,196C 55.244,196.417 54.5774,197.25 54.5,198.5 Z"/></g>
<g><path style="opacity:1" fill="#d57a46" d="M 80.5,186.5 C 81.6497,191.316 81.8163,196.316 81,201.5C 78.3838,206.56 74.2171,209.226 68.5,209.5C 70.2287,207.273 72.562,206.273 75.5,206.5C 75.2267,204.549 75.8934,203.049 77.5,202C 77.0426,201.586 76.7093,201.086 76.5,200.5C 79.6398,196.378 80.9732,191.711 80.5,186.5 Z"/></g>
<g><path style="opacity:0.927" fill="#db8f61" d="M 288.5,177.5 C 297.986,176.506 307.652,176.173 317.5,176.5C 317.333,190.837 317.5,205.171 318,219.5C 319.011,220.337 320.178,220.67 321.5,220.5C 321.083,221.124 320.416,221.457 319.5,221.5C 317.675,220.349 315.675,219.682 313.5,219.5C 313.729,217.567 314.562,215.9 316,214.5C 316.5,202.171 316.667,189.838 316.5,177.5C 307.167,177.5 297.833,177.5 288.5,177.5 Z"/></g>
<g><path style="opacity:0.459" fill="#e8b290" d="M 345.5,196.5 C 347.983,196.73 348.483,197.397 347,198.5C 345.97,198.164 345.47,197.497 345.5,196.5 Z"/></g>
<g><path style="opacity:0.086" fill="#f4f1ed" d="M 19.5,197.5 C 20.8333,198.167 20.8333,198.167 19.5,197.5 Z"/></g>
<g><path style="opacity:1" fill="#d27138" d="M 216.5,185.5 C 217.222,185.918 217.722,186.584 218,187.5C 218.87,193.917 218.536,200.251 217,206.5C 215.549,208.464 213.716,209.797 211.5,210.5C 212.036,208.159 212.369,205.826 212.5,203.5C 213.281,204.729 213.781,206.062 214,207.5C 213.813,204.111 213.979,200.778 214.5,197.5C 215.281,198.729 215.781,200.062 216,201.5C 216.333,201.167 216.667,200.833 217,200.5C 217.588,195.472 217.422,190.472 216.5,185.5 Z"/></g>
<g><path style="opacity:0.307" fill="#e2c2ae" d="M 280.5,177.5 C 281.5,177.5 282.5,177.5 283.5,177.5C 283.5,185.167 283.5,192.833 283.5,200.5C 273.085,200.192 262.751,200.525 252.5,201.5C 262.751,200.525 273.085,200.192 283.5,200.5C 283.5,192.833 283.5,185.167 283.5,177.5C 282.5,177.5 281.5,177.5 280.5,177.5 Z"/></g>
<g><path style="opacity:0.4" fill="#e3c9b7" d="M 183.5,197.5 C 185.415,197.216 187.081,197.549 188.5,198.5C 187.167,198.5 185.833,198.5 184.5,198.5C 184.264,201.609 184.597,204.609 185.5,207.5C 183.598,204.663 182.931,201.329 183.5,197.5 Z"/></g>
<g><path style="opacity:0.448" fill="#e1c0ab" d="M 407.5,177.5 C 407.833,177.5 408.167,177.5 408.5,177.5C 408.5,184.5 408.5,191.5 408.5,198.5C 401.167,198.5 393.833,198.5 386.5,198.5C 386.5,199.5 386.5,200.5 386.5,201.5C 393.687,201.175 400.687,201.509 407.5,202.5C 400.167,202.5 392.833,202.5 385.5,202.5C 385.5,200.833 385.5,199.167 385.5,197.5C 392.833,197.5 400.167,197.5 407.5,197.5C 407.5,190.833 407.5,184.167 407.5,177.5 Z"/></g>
<g><path style="opacity:0.59" fill="#dabaa6" d="M 456.5,177.5 C 442.167,177.5 427.833,177.5 413.5,177.5C 413.759,199.082 413.759,220.749 413.5,242.5C 413.5,242.833 413.5,243.167 413.5,243.5C 412.503,221.34 412.169,199.006 412.5,176.5C 427.343,176.171 442.01,176.504 456.5,177.5 Z"/></g>
<g><path style="opacity:0.082" fill="#ecccb8" d="M 55.5,198.5 C 56.4614,200.265 56.7947,202.265 56.5,204.5C 54.2646,204.795 52.2646,204.461 50.5,203.5C 52.1667,203.5 53.8333,203.5 55.5,203.5C 55.5,201.833 55.5,200.167 55.5,198.5 Z"/></g>
<g><path style="opacity:0.153" fill="#ecdbd0" d="M 283.5,204.5 C 274.833,204.5 266.167,204.5 257.5,204.5C 257.5,209.833 257.5,215.167 257.5,220.5C 257.167,220.5 256.833,220.5 256.5,220.5C 256.5,214.833 256.5,209.167 256.5,203.5C 265.682,203.173 274.682,203.507 283.5,204.5 Z"/></g>
<g><path style="opacity:1" fill="#d97e4a" d="M 476.5,202.5 C 475.687,205.989 473.687,208.656 470.5,210.5C 471.782,207.426 472.949,204.426 474,201.5C 474.342,203.619 475.175,203.953 476.5,202.5 Z"/></g>
<g><path style="opacity:1" fill="#d98b61" d="M 211.5,210.5 C 209.485,211.924 207.152,212.59 204.5,212.5C 206.279,210.656 208.612,209.99 211.5,210.5 Z"/></g>
<g><path style="opacity:1" fill="#d59169" d="M 69.5,210.5 C 72.2282,210.171 74.5615,210.837 76.5,212.5C 74.4727,212.662 72.4727,212.495 70.5,212C 69.944,211.617 69.6107,211.117 69.5,210.5 Z"/></g>
<g><path style="opacity:0.006" fill="#f9ebe3" d="M 466.5,211.5 C 465.833,212.167 465.167,212.833 464.5,213.5C 463.127,213.657 461.793,213.49 460.5,213C 462.436,212.187 464.436,211.687 466.5,211.5 Z"/></g>
<g><path style="opacity:0.698" fill="#e4bda4" d="M 78.5,213.5 C 80.2624,214.262 81.2624,215.596 81.5,217.5C 79.7376,216.738 78.7376,215.404 78.5,213.5 Z"/></g>
<g><path style="opacity:0.38" fill="#e2c3af" d="M 474.5,217.5 C 475.906,217.973 476.573,218.973 476.5,220.5C 475.094,220.027 474.427,219.027 474.5,217.5 Z"/></g>
<g><path style="opacity:1" fill="#ca5610" d="M 283.5,204.5 C 283.922,216.541 283.922,228.707 283.5,241C 267.962,244.6 252.295,245.267 236.5,243C 229.388,240.723 225.388,235.89 224.5,228.5C 224.071,224.743 224.737,221.243 226.5,218C 228.101,217.727 229.601,217.227 231,216.5C 231.333,216.833 231.667,217.167 232,217.5C 233.493,215.44 235.326,215.107 237.5,216.5C 236.833,216.833 236.167,217.167 235.5,217.5C 235.863,218.183 236.196,218.85 236.5,219.5C 233.825,221.846 234.158,223.846 237.5,225.5C 237.787,227.121 238.787,228.121 240.5,228.5C 244.037,225.149 248.204,222.815 253,221.5C 254.365,221.844 255.532,222.511 256.5,223.5C 257.386,222.675 257.719,221.675 257.5,220.5C 257.5,215.167 257.5,209.833 257.5,204.5C 266.167,204.5 274.833,204.5 283.5,204.5 Z M 240.5,223.5 C 240.179,225.048 239.179,225.715 237.5,225.5C 236.235,222.437 237.235,221.77 240.5,223.5 Z"/></g>
<g><path style="opacity:1" fill="#d07541" d="M 236.5,219.5 C 239.5,219.167 240.833,220.5 240.5,223.5C 237.235,221.77 236.235,222.437 237.5,225.5C 234.158,223.846 233.825,221.846 236.5,219.5 Z"/></g>
<g><path style="opacity:0.824" fill="#e49160" d="M 164.5,228.5 C 163.348,229.625 162.348,229.625 161.5,228.5C 161.328,227.508 161.662,226.842 162.5,226.5C 162.56,225.957 162.893,225.624 163.5,225.5C 164.386,226.325 164.719,227.325 164.5,228.5 Z"/></g>
<g><path style="opacity:0.525" fill="#e9ab87" d="M 420.5,226.5 C 421.302,225.115 421.969,225.282 422.5,227C 421.76,229.943 420.76,230.109 419.5,227.5C 419.624,226.893 419.957,226.56 420.5,226.5 Z"/></g>
<g><path style="opacity:0.671" fill="#e59e70" d="M 390.5,227.5 C 391.833,227.5 393.167,227.5 394.5,227.5C 394.617,229.484 393.95,231.15 392.5,232.5C 392.652,230.827 391.985,229.161 390.5,227.5 Z"/></g>
<g><path style="opacity:0.324" fill="#e4ccbd" d="M 187.5,227.5 C 189.442,232.056 190.108,237.056 189.5,242.5C 189.5,242.833 189.5,243.167 189.5,243.5C 188.79,238.268 188.123,232.935 187.5,227.5 Z"/></g>
<g><path style="opacity:1" fill="#d68f65" d="M 290.5,234.5 C 291.473,234.987 292.473,235.487 293.5,236C 292.829,236.986 292.829,238.153 293.5,239.5C 291.75,238.341 290.75,236.674 290.5,234.5 Z"/></g>
<g><path style="opacity:0.431" fill="#d9b8a3" d="M 386.5,218.5 C 386.5,219.833 386.5,221.167 386.5,222.5C 393.833,222.5 401.167,222.5 408.5,222.5C 408.825,229.687 408.491,236.687 407.5,243.5C 407.5,243.167 407.5,242.833 407.5,242.5C 407.5,236.167 407.5,229.833 407.5,223.5C 400.079,223.975 392.745,223.975 385.5,223.5C 385.216,221.585 385.549,219.919 386.5,218.5 Z"/></g>
<g><path style="opacity:1" fill="#d57f4f" d="M 147.5,235.5 C 146.095,239.236 143.429,241.569 139.5,242.5C 139.881,241.069 140.881,240.236 142.5,240C 141.833,239.667 141.167,239.333 140.5,239C 142.744,237.821 145.077,236.654 147.5,235.5 Z"/></g>
<g><path style="opacity:1" fill="#d68554" d="M 80.5,235.5 C 80.8333,235.5 81.1667,235.5 81.5,235.5C 80.4222,238.908 78.0889,240.908 74.5,241.5C 74.5,240.5 74.5,239.5 74.5,238.5C 77.2482,237.968 79.2482,236.968 80.5,235.5 Z"/></g>
<g><path style="opacity:0.478" fill="#e3bba3" d="M 293.5,239.5 C 295.027,239.427 296.027,240.094 296.5,241.5C 294.973,241.573 293.973,240.906 293.5,239.5 Z"/></g>
<g><path style="opacity:0.749" fill="#d2926a" d="M 154.5,225.5 C 155.489,230.975 155.822,236.642 155.5,242.5C 162.167,242.5 168.833,242.5 175.5,242.5C 175.833,238.5 176.167,238.5 176.5,242.5C 178.833,242.5 181.167,242.5 183.5,242.5C 183.179,237.305 183.513,232.305 184.5,227.5C 184.5,232.833 184.5,238.167 184.5,243.5C 174.5,243.5 164.5,243.5 154.5,243.5C 154.5,237.5 154.5,231.5 154.5,225.5 Z"/></g>
<g><path style="opacity:0.145" fill="#efcfbc" d="M 160.5,236.5 C 159.167,237.167 159.167,237.833 160.5,238.5C 159.528,239.751 158.861,239.418 158.5,237.5C 158.861,235.582 159.528,235.249 160.5,236.5 Z"/></g>
<g><path style="opacity:0.725" fill="#e1a986" d="M 219.5,226.5 C 220.489,231.975 220.822,237.642 220.5,243.5C 210.167,243.5 199.833,243.5 189.5,243.5C 189.5,243.167 189.5,242.833 189.5,242.5C 189.833,242.5 190.167,242.5 190.5,242.5C 200.167,242.5 209.833,242.5 219.5,242.5C 219.5,237.167 219.5,231.833 219.5,226.5 Z"/></g>
<g><path style="opacity:0.72" fill="#d58e60" d="M 370.5,240.5 C 382.584,242.449 394.917,243.116 407.5,242.5C 407.5,242.833 407.5,243.167 407.5,243.5C 395.167,243.5 382.833,243.5 370.5,243.5C 370.5,242.5 370.5,241.5 370.5,240.5 Z"/></g>
<g><path style="opacity:0.731" fill="#d48f63" d="M 442.5,242.5 C 433.014,243.494 423.348,243.827 413.5,243.5C 413.5,243.167 413.5,242.833 413.5,242.5C 420.167,242.5 426.833,242.5 433.5,242.5C 433.833,238.5 434.167,238.5 434.5,242.5C 437.167,242.5 439.833,242.5 442.5,242.5 Z"/></g>
<g><path style="opacity:0.738" fill="#d6976e" d="M 477.5,223.5 C 478.491,229.979 478.824,236.646 478.5,243.5C 468.167,243.5 457.833,243.5 447.5,243.5C 447.5,238.5 447.5,233.5 447.5,228.5C 448.486,232.97 448.819,237.637 448.5,242.5C 458.167,242.5 467.833,242.5 477.5,242.5C 477.5,236.167 477.5,229.833 477.5,223.5 Z"/></g>
</svg>
