<?xml version="1.0" encoding="UTF-8"?>
<!DOCTYPE svg PUBLIC "-//W3C//DTD SVG 1.1//EN" "http://www.w3.org/Graphics/SVG/1.1/DTD/svg11.dtd">
<svg xmlns="http://www.w3.org/2000/svg" version="1.1" width="500px" height="500px" style="shape-rendering:geometricPrecision; text-rendering:geometricPrecision; image-rendering:optimizeQuality; fill-rule:evenodd; clip-rule:evenodd" xmlns:xlink="http://www.w3.org/1999/xlink">
<g><path style="opacity:1" fill="#c75105" d="M 365.5,190.5 C 368.219,190.603 370.885,190.269 373.5,189.5C 375.639,190.977 377.972,191.977 380.5,192.5C 380.669,197.041 380.002,197.374 378.5,193.5C 377.15,194.95 375.484,195.617 373.5,195.5C 373.762,194.022 373.429,192.689 372.5,191.5C 371.5,192.833 370.5,194.167 369.5,195.5C 366.505,192.826 363.838,193.159 361.5,196.5C 364.027,197.214 366.527,197.88 369,198.5C 370.877,202.555 370.044,206.055 366.5,209C 370.018,211.186 371.852,214.353 372,218.5C 373.758,219.469 374.258,220.636 373.5,222C 374,222.5 374.5,223 375,223.5C 376.011,222.663 377.178,222.33 378.5,222.5C 379.266,226.085 381.599,228.085 385.5,228.5C 391.679,233.004 398.679,235.338 406.5,235.5C 419.545,234.271 432.212,231.438 444.5,227C 446.64,223.523 449.64,221.189 453.5,220C 476.081,217.002 477.748,220.669 458.5,231C 455.131,231.663 451.797,231.496 448.5,230.5C 440.517,231.661 433.184,234.494 426.5,239C 411.38,251.444 398.713,265.944 388.5,282.5C 378.599,249.228 359.265,222.728 330.5,203C 291.751,180.691 249.918,171.191 205,174.5C 192.483,174.582 179.983,175.082 167.5,176C 166,176.5 164.5,177 163,177.5C 162.235,177.43 161.735,177.097 161.5,176.5C 168.09,159.635 171.757,142.135 172.5,124C 172.708,117.363 171.875,110.863 170,104.5C 166.364,97.8792 162.364,91.5459 158,85.5C 157.333,80.5 157.333,75.5 158,70.5C 167.281,76.0673 171.448,84.0673 170.5,94.5C 175.211,111.77 183.877,126.603 196.5,139C 214.142,147.271 226.976,142.438 235,124.5C 238.15,115.419 239.483,106.086 239,96.5C 236.916,92.6641 234.583,88.9974 232,85.5C 230.995,75.6423 234.162,67.309 241.5,60.5C 247.34,66.4944 251.006,73.661 252.5,82C 252.204,83.8882 251.704,85.7216 251,87.5C 248.294,89.8706 245.961,92.5372 244,95.5C 242.672,109.197 244.339,122.53 249,135.5C 254.394,150.231 264.727,159.231 280,162.5C 289.7,160.817 298.033,156.483 305,149.5C 313.191,141.117 319.358,131.45 323.5,120.5C 322.981,117.399 322.147,114.399 321,111.5C 320.333,108.5 320.333,105.5 321,102.5C 326.661,95.8419 333.661,91.1752 342,88.5C 345.204,96.5476 346.204,104.881 345,113.5C 341.774,118.205 337.274,121.038 331.5,122C 329.667,123.167 328.167,124.667 327,126.5C 320.344,140.791 317.677,155.791 319,171.5C 323.312,185.42 332.812,192.754 347.5,193.5C 353.571,192.825 359.571,191.825 365.5,190.5 Z"/></g>
<g><path style="opacity:1" fill="#fe911f" d="M 388.5,282.5 C 393.166,294.511 394.666,306.844 393,319.5C 391.421,321.041 389.587,322.208 387.5,323C 382.415,323.606 377.415,324.44 372.5,325.5C 364.01,324.343 355.343,324.176 346.5,325C 345.944,325.383 345.611,325.883 345.5,326.5C 306.702,329.893 268.035,334.393 229.5,340C 211.785,343.41 194.118,347.076 176.5,351C 195.2,350.609 213.866,349.442 232.5,347.5C 252.62,347.867 272.787,348.867 293,350.5C 297.456,348.612 301.289,349.278 304.5,352.5C 305.337,350.495 306.837,349.495 309,349.5C 315.131,350.394 321.298,350.727 327.5,350.5C 335.868,350.921 344.201,351.754 352.5,353C 362.845,358 363.845,364.333 355.5,372C 353.5,372.667 351.5,373.333 349.5,374C 370.183,374.804 390.849,375.804 411.5,377C 418.782,380.821 420.282,386.321 416,393.5C 414.745,394.211 413.579,395.044 412.5,396C 400.838,396.5 389.171,396.667 377.5,396.5C 377.082,395.778 376.416,395.278 375.5,395C 346.5,394.333 317.5,394.333 288.5,395C 287.944,395.383 287.611,395.883 287.5,396.5C 259.846,398.737 232.179,400.737 204.5,402.5C 196.464,402.771 188.464,402.438 180.5,401.5C 175.678,404.346 170.845,404.679 166,402.5C 165.228,402.645 164.561,402.978 164,403.5C 162.981,402.313 161.814,401.313 160.5,400.5C 159.5,400.833 158.833,401.5 158.5,402.5C 159.167,402.833 159.833,403.167 160.5,403.5C 154.848,404.37 149.181,405.037 143.5,405.5C 143.5,404.5 143.5,403.5 143.5,402.5C 142.448,402.351 141.448,402.517 140.5,403C 139.167,403.667 139.167,404.333 140.5,405C 140,405.167 139.5,405.333 139,405.5C 135.455,403.999 134.955,404.499 137.5,407C 137,407.167 136.5,407.333 136,407.5C 133.526,404.67 131.359,404.837 129.5,408C 125.623,408.729 121.789,408.562 118,407.5C 113.063,410.565 107.73,411.232 102,409.5C 100.855,410.636 99.6883,411.636 98.5,412.5C 87.4883,413.987 82.655,409.32 84,398.5C 85.1667,396.667 86.6667,395.167 88.5,394C 101.904,389.32 115.571,385.653 129.5,383C 154.078,378.808 178.745,375.142 203.5,372C 193.816,372.068 184.15,372.734 174.5,374C 127.885,380.28 81.2187,385.613 34.5,390C 23.9326,386.898 21.5993,380.898 27.5,372C 63.9799,357.395 101.313,344.728 139.5,334C 123.503,334.721 107.503,335.554 91.5,336.5C 75.8333,336.5 60.1667,336.5 44.5,336.5C 25.9991,335.836 17.6657,326.336 19.5,308C 21.0375,262.571 40.7042,227.571 78.5,203C 104.223,188.478 131.889,179.645 161.5,176.5C 161.735,177.097 162.235,177.43 163,177.5C 164.5,177 166,176.5 167.5,176C 179.983,175.082 192.483,174.582 205,174.5C 249.918,171.191 291.751,180.691 330.5,203C 359.265,222.728 378.599,249.228 388.5,282.5 Z M 172.5,198.5 C 177.863,198.05 181.863,200.05 184.5,204.5C 182.202,210.631 177.869,214.465 171.5,216C 166.624,218.191 161.958,217.858 157.5,215C 155.653,209.02 157.653,204.687 163.5,202C 166.598,200.772 169.598,199.606 172.5,198.5 Z M 103.5,229.5 C 101.062,231.535 98.3953,233.201 95.5,234.5C 92.1501,234.665 88.8168,234.498 85.5,234C 82.5516,230.073 83.2183,226.739 87.5,224C 91.2035,222.1 95.0368,220.6 99,219.5C 105.592,220.699 107.092,224.032 103.5,229.5 Z M 128.5,241.5 C 132.753,240.986 136.587,241.986 140,244.5C 142.427,250.175 140.927,254.675 135.5,258C 128.678,262.625 121.345,263.625 113.5,261C 110.813,257.107 110.98,253.274 114,249.5C 118.408,245.883 123.241,243.217 128.5,241.5 Z"/></g>
<g><path style="opacity:1" fill="#c3520a" d="M 385.5,228.5 C 381.599,228.085 379.266,226.085 378.5,222.5C 377.178,222.33 376.011,222.663 375,223.5C 374.5,223 374,222.5 373.5,222C 374.258,220.636 373.758,219.469 372,218.5C 371.852,214.353 370.018,211.186 366.5,209C 370.044,206.055 370.877,202.555 369,198.5C 366.527,197.88 364.027,197.214 361.5,196.5C 363.838,193.159 366.505,192.826 369.5,195.5C 370.5,194.167 371.5,192.833 372.5,191.5C 373.429,192.689 373.762,194.022 373.5,195.5C 375.484,195.617 377.15,194.95 378.5,193.5C 380.002,197.374 380.669,197.041 380.5,192.5C 377.972,191.977 375.639,190.977 373.5,189.5C 370.885,190.269 368.219,190.603 365.5,190.5C 377.967,185.677 389.134,178.677 399,169.5C 400.174,165.954 400.84,162.287 401,158.5C 402.122,156.376 403.622,154.543 405.5,153C 412.581,150.32 419.914,148.82 427.5,148.5C 426.731,157.2 423.397,164.7 417.5,171C 411.885,172.119 406.218,173.119 400.5,174C 387.752,183.16 380.085,195.494 377.5,211C 378.102,217.771 380.768,223.604 385.5,228.5 Z"/></g>
<g><path style="opacity:0.985" fill="#f59731" d="M 103.5,229.5 C 107.092,224.032 105.592,220.699 99,219.5C 95.0368,220.6 91.2035,222.1 87.5,224C 83.2183,226.739 82.5516,230.073 85.5,234C 88.8168,234.498 92.1501,234.665 95.5,234.5C 92.1469,235.89 88.6469,237.224 85,238.5C 84.2496,237.874 83.4162,237.374 82.5,237C 83.2719,233.756 81.9385,231.423 78.5,230C 79.5089,227.828 81.1756,226.662 83.5,226.5C 83.6495,225.448 83.4828,224.448 83,223.5C 81.3335,224.34 81.1669,223.84 82.5,222C 85.9033,221.422 89.0699,220.255 92,218.5C 96.887,218.006 101.72,218.673 106.5,220.5C 106.664,223.187 106.497,225.854 106,228.5C 105.329,229.252 104.496,229.586 103.5,229.5 Z"/></g>
<g><path style="opacity:0.071" fill="#ed9e46" d="M 372.5,325.5 C 363.491,325.626 354.491,325.959 345.5,326.5C 345.611,325.883 345.944,325.383 346.5,325C 355.343,324.176 364.01,324.343 372.5,325.5 Z"/></g>
<g><path style="opacity:0.845" fill="#ed9b42" d="M 44.5,336.5 C 60.1667,336.5 75.8333,336.5 91.5,336.5C 82.6916,337.688 73.6916,338.355 64.5,338.5C 57.6083,338.61 50.9416,337.944 44.5,336.5 Z"/></g>
<g><path style="opacity:0.569" fill="#f19739" d="M 232.5,347.5 C 258.502,347.333 284.502,347.5 310.5,348C 316.331,348.71 321.998,349.543 327.5,350.5C 321.298,350.727 315.131,350.394 309,349.5C 306.837,349.495 305.337,350.495 304.5,352.5C 301.289,349.278 297.456,348.612 293,350.5C 272.787,348.867 252.62,347.867 232.5,347.5 Z"/></g>
<g><path style="opacity:0.982" fill="#eb993f" d="M 377.5,396.5 C 347.499,395.235 317.499,395.235 287.5,396.5C 287.611,395.883 287.944,395.383 288.5,395C 317.5,394.333 346.5,394.333 375.5,395C 376.416,395.278 377.082,395.778 377.5,396.5 Z"/></g>
<g><path style="opacity:0.949" fill="#f6962e" d="M 204.5,402.5 C 169.309,405.818 133.975,409.152 98.5,412.5C 99.6883,411.636 100.855,410.636 102,409.5C 107.73,411.232 113.063,410.565 118,407.5C 121.789,408.562 125.623,408.729 129.5,408C 131.359,404.837 133.526,404.67 136,407.5C 136.5,407.333 137,407.167 137.5,407C 134.955,404.499 135.455,403.999 139,405.5C 139.5,405.333 140,405.167 140.5,405C 139.167,404.333 139.167,403.667 140.5,403C 141.448,402.517 142.448,402.351 143.5,402.5C 143.5,403.5 143.5,404.5 143.5,405.5C 149.181,405.037 154.848,404.37 160.5,403.5C 159.833,403.167 159.167,402.833 158.5,402.5C 158.833,401.5 159.5,400.833 160.5,400.5C 161.814,401.313 162.981,402.313 164,403.5C 164.561,402.978 165.228,402.645 166,402.5C 170.845,404.679 175.678,404.346 180.5,401.5C 188.464,402.438 196.464,402.771 204.5,402.5 Z"/></g>
<g><path style="opacity:1" fill="#fd9120" d="M 277.5,446.5 C 277.389,445.883 277.056,445.383 276.5,445C 266.451,444.865 256.451,444.198 246.5,443C 228.833,442.333 211.167,442.333 193.5,443C 192.584,443.278 191.918,443.778 191.5,444.5C 168.737,445.487 146.07,447.487 123.5,450.5C 118.156,450.666 112.823,450.499 107.5,450C 106.953,449.075 106.287,448.242 105.5,447.5C 105.55,448.848 105.217,450.348 104.5,452C 98.7376,451.311 93.2376,452.478 88,455.5C 85.0118,454.805 82.1785,454.805 79.5,455.5C 77.9446,455.278 76.6113,454.611 75.5,453.5C 74.707,454.355 75.0403,455.189 76.5,456C 75.8333,456.333 75.1667,456.667 74.5,457C 69.2664,457.463 64.2664,457.296 59.5,456.5C 59.5262,458.205 58.5262,459.705 56.5,461C 57.6341,462.016 57.3008,462.683 55.5,463C 49.8803,464.584 44.2136,464.918 38.5,464C 40.8912,465.309 40.8912,466.309 38.5,467C 34.8484,467.499 31.1817,467.665 27.5,467.5C 27.3505,466.448 27.5172,465.448 28,464.5C 28.8893,465.888 29.3893,465.722 29.5,464C 29.0496,462.715 28.3829,461.548 27.5,460.5C 28.4318,458.205 29.2652,455.871 30,453.5C 32.6278,450.79 35.4611,448.456 38.5,446.5C 45.4703,443.005 52.8036,440.172 60.5,438C 117.576,426.213 175.243,418.88 233.5,416C 271.954,413.382 310.454,411.882 349,411.5C 360.187,411.573 371.353,412.073 382.5,413C 389.287,414.79 393.787,418.957 396,425.5C 400.767,439.362 398.934,452.196 390.5,464C 353.277,455.732 315.611,449.898 277.5,446.5 Z"/></g>
<g><path style="opacity:0.964" fill="#ee9b41" d="M 277.5,446.5 C 248.868,443.992 220.201,443.325 191.5,444.5C 191.918,443.778 192.584,443.278 193.5,443C 211.167,442.333 228.833,442.333 246.5,443C 256.451,444.198 266.451,444.865 276.5,445C 277.056,445.383 277.389,445.883 277.5,446.5 Z"/></g>
<g><path style="opacity:0.995" fill="#f49632" d="M 38.5,446.5 C 35.4611,448.456 32.6278,450.79 30,453.5C 29.2652,455.871 28.4318,458.205 27.5,460.5C 28.3829,461.548 29.0496,462.715 29.5,464C 29.3893,465.722 28.8893,465.888 28,464.5C 27.5172,465.448 27.3505,466.448 27.5,467.5C 31.1817,467.665 34.8484,467.499 38.5,467C 40.8912,466.309 40.8912,465.309 38.5,464C 44.2136,464.918 49.8803,464.584 55.5,463C 57.3008,462.683 57.6341,462.016 56.5,461C 58.5262,459.705 59.5262,458.205 59.5,456.5C 64.2664,457.296 69.2664,457.463 74.5,457C 75.1667,456.667 75.8333,456.333 76.5,456C 75.0403,455.189 74.707,454.355 75.5,453.5C 76.6113,454.611 77.9446,455.278 79.5,455.5C 82.1785,454.805 85.0118,454.805 88,455.5C 93.2376,452.478 98.7376,451.311 104.5,452C 105.217,450.348 105.55,448.848 105.5,447.5C 106.287,448.242 106.953,449.075 107.5,450C 112.823,450.499 118.156,450.666 123.5,450.5C 91.812,455.175 60.4787,462.175 29.5,471.5C 27.3643,470.577 26.1976,468.911 26,466.5C 24.1919,456.135 28.3586,449.468 38.5,446.5 Z"/></g>
</svg>
